<svg width="32" height="32" viewBox="0 0 32 32" fill="none" xmlns="http://www.w3.org/2000/svg">
<g clip-path="url(#clip0_10_417)">
<path d="M1.74967 12.4133H4.97233C5.68414 12.4133 6.28526 12.2571 6.77572 11.9446C7.27051 11.6538 7.65679 11.2849 7.93457 10.8378C8.03874 10.6685 8.12771 10.5058 8.2015 10.3495C8.27094 10.1889 8.32302 10.0066 8.35775 9.80265C8.43153 9.39901 8.46842 8.6872 8.46842 7.66724C8.46842 6.70804 8.44455 6.03312 8.39681 5.6425C8.33605 5.25187 8.19065 4.87861 7.96061 4.52271C7.31825 3.46368 6.35471 2.92982 5.06999 2.92114H1.74967V12.4133ZM3.18848 4.28182H4.90723C5.63639 4.26446 6.20063 4.53139 6.59993 5.0826C6.79525 5.30396 6.91894 5.59258 6.97103 5.94849C7.01009 6.30439 7.02962 6.89467 7.02962 7.71932C7.02962 8.56567 7.01009 9.14293 6.97103 9.45109C6.92763 9.76359 6.82563 10.0218 6.66504 10.2258C6.30046 10.777 5.71452 11.0527 4.90723 11.0527H3.18848V4.28182ZM22.9606 12.4133H24.3994V5.66854H24.4255L28.7158 12.4133H30.0765V2.92114H28.6377V9.66593H28.6117L24.3148 2.92114H22.9606V12.4133ZM1.86686 26.1086L0.922852 27.1894C1.93414 28.0574 3.1429 28.4915 4.54915 28.4915C6.72363 28.4654 7.83474 27.5453 7.88249 25.731C7.88249 25.0583 7.67198 24.468 7.25098 23.9602C6.82563 23.4437 6.16808 23.1247 5.27832 23.0032C4.82693 22.9468 4.47103 22.8968 4.21061 22.8534C3.74186 22.7666 3.40115 22.6104 3.18848 22.3847C2.9758 22.1633 2.86947 21.9159 2.86947 21.6425C2.87815 21.1868 3.03657 20.8439 3.34473 20.6139C3.63987 20.3925 4.00879 20.2818 4.4515 20.2818C5.30653 20.2992 6.08995 20.5422 6.80176 21.011L7.60254 19.8261C6.73014 19.1968 5.70367 18.8691 4.52311 18.843C3.54221 18.8517 2.78483 19.1078 2.25098 19.6112C1.69976 20.1191 1.42415 20.7875 1.42415 21.6165C1.42415 22.3066 1.64334 22.8925 2.08171 23.3743C2.50705 23.843 3.12771 24.1447 3.94368 24.2792C4.39941 24.3443 4.81825 24.4029 5.20019 24.455C6.03353 24.5982 6.44585 25.0236 6.43717 25.731C6.41981 26.5948 5.79481 27.0353 4.56217 27.0527C3.52051 27.044 2.62207 26.7293 1.86686 26.1086ZM9.40592 28.4133H15.4671V27.0527H10.8447V24.2662H14.79V22.9902H10.8447V20.2818H15.4671V18.9211H9.40592V28.4133ZM21.7041 25.7571C21.3048 26.6208 20.7015 27.0527 19.8942 27.0527C19.5557 27.0527 19.2649 26.981 19.0218 26.8378C18.7744 26.7163 18.5748 26.5579 18.4228 26.3625C18.2362 26.1586 18.1125 25.8916 18.0518 25.5618C17.9823 25.2319 17.9476 24.6004 17.9476 23.6672C17.9476 22.7341 17.9823 22.0982 18.0518 21.7597C18.1125 21.4385 18.2362 21.1759 18.4228 20.9719C18.5748 20.7766 18.7744 20.6139 19.0218 20.4836C19.2649 20.3578 19.5557 20.2905 19.8942 20.2818C20.3543 20.2905 20.7449 20.4229 21.0661 20.679C21.3742 20.9481 21.5869 21.2736 21.7041 21.6555H23.2275C23.0756 20.8612 22.711 20.195 22.1338 19.6568C21.5565 19.123 20.81 18.8517 19.8942 18.843C19.1477 18.8517 18.5248 19.0297 18.0257 19.3769C17.5179 19.7198 17.149 20.1104 16.9189 20.5487C16.7757 20.7788 16.6694 21.0804 16.5999 21.4537C16.5348 21.827 16.5023 22.5648 16.5023 23.6672C16.5023 24.7523 16.5348 25.4858 16.5999 25.8678C16.6347 26.0718 16.6781 26.241 16.7301 26.3756C16.7866 26.5058 16.8495 26.6425 16.9189 26.7857C17.149 27.2241 17.5179 27.6104 18.0257 27.9446C18.5248 28.2918 19.1477 28.4741 19.8942 28.4915C20.7189 28.4915 21.4328 28.2571 22.0361 27.7883C22.6221 27.3152 23.0192 26.6382 23.2275 25.7571H21.7041ZM25.9294 25.0149L27.3031 20.8678H27.3291L28.7028 25.0149H25.9294ZM29.8486 28.4133H31.3656L27.915 18.9211H26.7106L23.2601 28.4133H24.7835L25.5127 26.2909H29.113L29.8486 28.4133Z" fill="black"/>
<path d="M21.5776 7.76C21.5776 10.9412 18.9988 13.52 15.8176 13.52C12.6365 13.52 10.0576 10.9412 10.0576 7.76C10.0576 4.57884 12.6365 2 15.8176 2C18.9988 2 21.5776 4.57884 21.5776 7.76Z" fill="#DBB52E"/>
</g>
<defs>
<clipPath id="clip0_10_417">
<rect width="32" height="32" fill="white"/>
</clipPath>
</defs>
</svg>
