<svg width="45" height="45" viewBox="0 0 45 45" fill="none" xmlns="http://www.w3.org/2000/svg">
<path d="M1.40057 18.2905V5.03052H6.03882C7.83349 5.04262 9.17951 5.7884 10.0769 7.26781C10.3982 7.76498 10.6013 8.28639 10.6862 8.83209C10.7529 9.37775 10.7862 10.3206 10.7862 11.6605C10.7862 13.0853 10.7347 14.0797 10.6316 14.6436C10.5831 14.9285 10.5104 15.1832 10.4134 15.4075C10.3103 15.6258 10.186 15.8531 10.0405 16.0896C9.65245 16.7141 9.11283 17.2295 8.42162 17.6357C7.73649 18.0722 6.89676 18.2905 5.9024 18.2905H1.40057ZM3.41048 6.93128V16.3897H5.81147C6.93919 16.3897 7.75772 16.0047 8.26703 15.2347C8.49136 14.9497 8.63384 14.589 8.69445 14.1524C8.74903 13.722 8.77633 12.9156 8.77633 11.7333C8.77633 10.5813 8.74903 9.75671 8.69445 9.25951C8.6217 8.76235 8.44893 8.35914 8.17606 8.04995C7.61825 7.27992 6.83008 6.90703 5.81147 6.93128H3.41048ZM31.0309 18.2905V5.03052H32.9226L38.925 14.4526H38.9615V5.03052H40.9712V18.2905H39.0706L33.0772 8.86844H33.0408V18.2905H31.0309ZM1.56427 36.7515C2.61925 37.6185 3.87431 38.0581 5.32943 38.07C7.05136 38.0458 7.92446 37.4304 7.94871 36.224C7.96082 35.2357 7.38483 34.6415 6.22072 34.4414C5.68716 34.3687 5.10209 34.2868 4.46546 34.1959C3.3256 34.0079 2.45857 33.5865 1.86439 32.9317C1.25202 32.2587 0.945831 31.4402 0.945831 30.4762C0.945831 29.3181 1.33084 28.3844 2.10085 27.675C2.84661 26.9717 3.90463 26.614 5.2749 26.6018C6.92403 26.6382 8.35796 27.096 9.57664 27.9752L8.45802 29.6304C7.46366 28.9755 6.36928 28.636 5.17484 28.6117C4.55639 28.6117 4.04105 28.7664 3.62875 29.0756C3.19827 29.3969 2.97697 29.8759 2.96484 30.5126C2.96484 30.8945 3.11339 31.2401 3.41048 31.5493C3.70757 31.8646 4.18354 32.0829 4.83835 32.2041C5.20211 32.2648 5.69931 32.3345 6.32987 32.4133C7.5728 32.5831 8.49136 33.0287 9.08552 33.7502C9.67365 34.4596 9.96771 35.2842 9.96771 36.224C9.90103 38.7584 8.34887 40.0436 5.31126 40.0801C3.34682 40.0801 1.65825 39.4737 0.245544 38.2611L1.56427 36.7515ZM12.0959 39.971V26.711H20.563V28.6117H14.1058V32.3951H19.6171V34.1777H14.1058V38.07H20.563V39.971H12.0959ZM29.2757 36.2604H31.4038C31.1128 37.4911 30.558 38.4369 29.7395 39.0978C28.8967 39.7527 27.8993 40.0801 26.7474 40.0801C25.7045 40.0559 24.8344 39.8011 24.1372 39.3161C23.4278 38.8493 22.9124 38.3095 22.5911 37.6971C22.4941 37.4971 22.4062 37.3064 22.3273 37.1243C22.2546 36.9364 22.194 36.6999 22.1454 36.415C22.0545 35.8814 22.009 34.8568 22.009 33.341C22.009 31.8009 22.0545 30.7702 22.1454 30.2488C22.2425 29.7274 22.391 29.306 22.5911 28.9846C22.9124 28.3723 23.4278 27.8266 24.1372 27.3476C24.8344 26.8626 25.7045 26.614 26.7474 26.6018C28.0266 26.614 29.0695 26.9929 29.8759 27.7387C30.6823 28.4905 31.1916 29.4212 31.4038 30.5307H29.2757C29.1119 29.9972 28.8149 29.5424 28.3844 29.1665C27.9357 28.8088 27.39 28.6239 26.7474 28.6117C26.2744 28.6239 25.8682 28.7179 25.5287 28.8937C25.183 29.0756 24.9041 29.303 24.692 29.5758C24.4312 29.8608 24.2584 30.2276 24.1736 30.6762C24.0766 31.1492 24.0281 32.0374 24.0281 33.341C24.0281 34.6445 24.0766 35.5267 24.1736 35.9875C24.2584 36.4483 24.4312 36.8212 24.692 37.1062C24.9041 37.379 25.183 37.6003 25.5287 37.7701C25.8682 37.9702 26.2744 38.07 26.7474 38.07C27.8751 38.07 28.7179 37.4669 29.2757 36.2604ZM35.1781 35.2236H39.0524L37.1334 29.4303H37.0971L35.1781 35.2236ZM40.6531 39.971L39.6253 37.0061H34.596L33.5774 39.971H31.4493L36.2694 26.711H37.952L42.772 39.971H40.6531Z" fill="#EEEEEE"/>
<path d="M28.9073 11.7343C28.9073 16.1782 25.3048 19.7807 20.8609 19.7807C16.417 19.7807 12.8146 16.1782 12.8146 11.7343C12.8146 7.29045 16.417 3.68799 20.8609 3.68799C25.3048 3.68799 28.9073 7.29045 28.9073 11.7343Z" fill="#DBB52E"/>
</svg>
